<svg width="25" height="24" viewBox="0 0 25 24" fill="none" xmlns="http://www.w3.org/2000/svg">
<path d="M13.442 2.53333C13.9782 2.26667 14.2463 1.6 14.1122 1.06667C13.9782 0.533333 13.308 0 12.6378 0C6.06969 0.133333 0.976074 5.46667 0.976074 12C0.976074 18.6667 6.33778 24 13.0399 24C18.1335 24 22.5569 20.8 24.2995 16.1333C24.5676 15.6 24.2995 14.9333 23.7633 14.5333C23.2271 14.1333 22.5569 14.2667 22.1548 14.6667C20.8144 15.8667 19.0718 16.5333 17.1952 16.5333C13.0399 16.5333 9.5548 13.2 9.5548 8.93333C9.5548 6.4 11.0293 3.86667 13.442 2.53333ZM17.1952 19.2C17.8654 19.2 18.5356 19.2 19.0718 19.0667C17.4633 20.5333 15.3186 21.3333 13.0399 21.3333C7.81224 21.3333 3.65692 17.2 3.65692 12C3.65692 8.66667 5.53352 5.6 8.34841 4C7.41012 5.46667 7.00799 7.2 7.00799 9.06667C6.87395 14.6667 11.5654 19.2 17.1952 19.2Z" fill="#E9E9E9"/>
</svg>
