<svg width="31" height="31" viewBox="0 0 31 31" fill="none" xmlns="http://www.w3.org/2000/svg">
<g clip-path="url(#clip0_1454_3383)">
<path d="M7.81154 15.5C7.81154 19.8056 11.1945 23.1885 15.5 23.1885C19.8056 23.1885 23.1885 19.8056 23.1885 15.5C23.1885 11.1945 19.8056 7.81154 15.5 7.81154C11.1945 7.81154 7.81154 11.1945 7.81154 15.5ZM15.5 10.8869C18.1141 10.8869 20.1131 12.8859 20.1131 15.5C20.1131 18.1141 18.1141 20.1131 15.5 20.1131C12.8859 20.1131 10.8869 18.1141 10.8869 15.5C10.8869 12.8859 12.8859 10.8869 15.5 10.8869ZM17.0377 4.73614V1.66075C17.0377 0.738126 16.4227 0.123047 15.5 0.123047C14.5774 0.123047 13.9623 0.738126 13.9623 1.66075V4.73614C13.9623 5.65876 14.5774 6.27384 15.5 6.27384C16.4227 6.27384 17.0377 5.65876 17.0377 4.73614ZM26.4177 4.58237C25.8026 3.96729 24.88 3.96729 24.2649 4.58237L22.1121 6.73515C21.4971 7.35023 21.4971 8.27285 22.1121 8.88793C22.4197 9.19547 22.881 9.34924 23.1885 9.34924C23.4961 9.34924 23.9574 9.19547 24.2649 8.88793L26.4177 6.73515C27.0328 6.27384 27.0328 5.19745 26.4177 4.58237ZM29.3393 13.9623H26.2639C25.3413 13.9623 24.7262 14.5774 24.7262 15.5C24.7262 16.4227 25.3413 17.0377 26.2639 17.0377H29.3393C30.2619 17.0377 30.877 16.4227 30.877 15.5C30.877 14.5774 30.2619 13.9623 29.3393 13.9623ZM24.2649 21.9584C23.6498 21.3433 22.7272 21.3433 22.1121 21.9584C21.4971 22.5734 21.4971 23.4961 22.1121 24.1111L24.2649 26.2639C24.5725 26.5715 25.0338 26.7252 25.3413 26.7252C25.6488 26.7252 26.1102 26.5715 26.4177 26.2639C27.0328 25.6488 27.0328 24.7262 26.4177 24.1111L24.2649 21.9584ZM13.9623 26.2639V29.3393C13.9623 30.2619 14.5774 30.877 15.5 30.877C16.4227 30.877 17.0377 30.2619 17.0377 29.3393V26.2639C17.0377 25.3413 16.4227 24.7262 15.5 24.7262C14.5774 24.7262 13.9623 25.3413 13.9623 26.2639ZM4.58237 26.4177C4.88991 26.7252 5.35122 26.879 5.65876 26.879C5.9663 26.879 6.42761 26.7252 6.73515 26.4177L8.88793 24.2649C9.50301 23.6498 9.50301 22.7272 8.88793 22.1121C8.27285 21.4971 7.35023 21.4971 6.73515 22.1121L4.58237 24.2649C3.96729 24.7262 3.96729 25.8026 4.58237 26.4177ZM0.123047 15.5C0.123047 16.4227 0.738126 17.0377 1.66075 17.0377H4.73614C5.65876 17.0377 6.27384 16.4227 6.27384 15.5C6.27384 14.5774 5.65876 13.9623 4.73614 13.9623H1.66075C0.738126 13.9623 0.123047 14.5774 0.123047 15.5ZM6.73515 4.58237C6.12007 3.96729 5.19745 3.96729 4.58237 4.58237C3.96729 5.19745 3.96729 6.12007 4.58237 6.73515L6.73515 8.88793C7.04269 9.34924 7.504 9.50301 7.96531 9.50301C8.42662 9.50301 8.73416 9.34924 9.0417 9.0417C9.65678 8.42662 9.65678 7.504 9.0417 6.88892L6.73515 4.58237Z" fill="black"/>
</g>
<defs>
<clipPath id="clip0_1454_3383">
<rect width="31" height="31" fill="white"/>
</clipPath>
</defs>
</svg>
